name C:/MyDriveSym/Projects/mobilecap/Data\Session20210903_0002\mocap\ForceDataProcessed\walking3_forces.mot
datacolumns 19
datarows 27
range 0.64950000 0.66250000
endheader 
time	R_ground_force_vx	R_ground_force_vy	R_ground_force_vz	R_ground_force_px	R_ground_force_py	R_ground_force_pz	R_ground_torque_x	R_ground_torque_y	R_ground_torque_z	L_ground_force_vx	L_ground_force_vy	L_ground_force_vz	L_ground_force_px	L_ground_force_py	L_ground_force_pz	L_ground_torque_x	L_ground_torque_y	L_ground_torque_z	
          0.64950000	         72.00455700	        229.45355100	         -2.68014900	          0.29965400	          0.00600000	         -0.17129400	          0.00000000	         -0.21701100	          0.00000000	        -90.53453800	        479.29673400	          8.20776400	          0.83915600	          0.00600000	         -0.27733100	          0.00000000	          0.32024800	          0.00000000	
          0.65000000	         71.50969400	        227.24939400	         -2.59173100	          0.29979200	          0.00600000	         -0.17129300	          0.00000000	         -0.21458500	          0.00000000	        -90.88300500	        481.03670000	          8.38032000	          0.83936400	          0.00600000	         -0.27737500	          0.00000000	          0.31555800	          0.00000000	
          0.65050000	         71.01336900	        225.05071000	         -2.50431200	          0.29993200	          0.00600000	         -0.17129200	          0.00000000	         -0.21216900	          0.00000000	        -91.22727700	        482.76311200	          8.55338000	          0.83957300	          0.00600000	         -0.27741900	          0.00000000	          0.31080600	          0.00000000	
          0.65100000	         70.51564700	        222.85765800	         -2.41789600	          0.30007200	          0.00600000	         -0.17129100	          0.00000000	         -0.20976100	          0.00000000	        -91.56731800	        484.47586100	          8.72692900	          0.83978100	          0.00600000	         -0.27746300	          0.00000000	          0.30599200	          0.00000000	
          0.65150000	         70.01659000	        220.67039700	         -2.33248100	          0.30021300	          0.00600000	         -0.17128900	          0.00000000	         -0.20736200	          0.00000000	        -91.90309500	        486.17484200	          8.90095000	          0.83998800	          0.00600000	         -0.27750700	          0.00000000	          0.30111800	          0.00000000	
          0.65200000	         69.51626500	        218.48908500	         -2.24806900	          0.30035500	          0.00600000	         -0.17128800	          0.00000000	         -0.20497200	          0.00000000	        -92.23457400	        487.85995300	          9.07542800	          0.84019600	          0.00600000	         -0.27755100	          0.00000000	          0.29618300	          0.00000000	
          0.65250000	         69.01473600	        216.31387600	         -2.16466100	          0.30049800	          0.00600000	         -0.17128600	          0.00000000	         -0.20259000	          0.00000000	        -92.56172200	        489.53109300	          9.25034700	          0.84040300	          0.00600000	         -0.27759500	          0.00000000	          0.29118800	          0.00000000	
          0.65300000	         68.51206800	        214.14492500	         -2.08225600	          0.30064100	          0.00600000	         -0.17128500	          0.00000000	         -0.20021800	          0.00000000	        -92.88450900	        491.18816800	          9.42569100	          0.84061000	          0.00600000	         -0.27763900	          0.00000000	          0.28613300	          0.00000000	
          0.65350000	         68.00832500	        211.98238600	         -2.00085500	          0.30078500	          0.00600000	         -0.17128300	          0.00000000	         -0.19785500	          0.00000000	        -93.20290300	        492.83108400	          9.60144400	          0.84081700	          0.00600000	         -0.27768300	          0.00000000	          0.28102000	          0.00000000	
          0.65400000	         67.50357100	        209.82641000	         -1.92045600	          0.30093000	          0.00600000	         -0.17128100	          0.00000000	         -0.19550000	          0.00000000	        -93.51687700	        494.45975000	          9.77758900	          0.84102400	          0.00600000	         -0.27772600	          0.00000000	          0.27584800	          0.00000000	
          0.65450000	         66.99787200	        207.67714700	         -1.84105900	          0.30107600	          0.00600000	         -0.17127900	          0.00000000	         -0.19315400	          0.00000000	        -93.82640200	        496.07408000	          9.95411100	          0.84123000	          0.00600000	         -0.27777000	          0.00000000	          0.27061700	          0.00000000	
          0.65500000	         66.49129100	        205.53474400	         -1.76266300	          0.30122200	          0.00600000	         -0.17127700	          0.00000000	         -0.19081800	          0.00000000	        -94.13145000	        497.67399000	         10.13099300	          0.84143700	          0.00600000	         -0.27781400	          0.00000000	          0.26532900	          0.00000000	
          0.65550000	         65.98389300	        203.39935000	         -1.68526600	          0.30136900	          0.00600000	         -0.17127500	          0.00000000	         -0.18849000	          0.00000000	        -94.43199600	        499.25939900	         10.30822000	          0.84164300	          0.00600000	         -0.27785700	          0.00000000	          0.25998400	          0.00000000	
          0.65600000	         65.47574200	        201.27110900	         -1.60886600	          0.30151800	          0.00600000	         -0.17127200	          0.00000000	         -0.18617200	          0.00000000	        -94.72801400	        500.83023000	         10.48577300	          0.84184900	          0.00600000	         -0.27790100	          0.00000000	          0.25458200	          0.00000000	
          0.65650000	         64.96690100	        199.15016500	         -1.53346100	          0.30166700	          0.00600000	         -0.17127000	          0.00000000	         -0.18386200	          0.00000000	        -95.01948100	        502.38640800	         10.66363800	          0.84205400	          0.00600000	         -0.27794500	          0.00000000	          0.24912500	          0.00000000	
          0.65700000	         64.45743500	        197.03665900	         -1.45904900	          0.30181700	          0.00600000	         -0.17126700	          0.00000000	         -0.18156200	          0.00000000	        -95.30637300	        503.92786200	         10.84179700	          0.84226000	          0.00600000	         -0.27798800	          0.00000000	          0.24361100	          0.00000000	
          0.65750000	         63.94740600	        194.93073300	         -1.38562800	          0.30196800	          0.00600000	         -0.17126400	          0.00000000	         -0.17927100	          0.00000000	        -95.58866900	        505.45452400	         11.02023400	          0.84246500	          0.00600000	         -0.27803200	          0.00000000	          0.23804300	          0.00000000	
          0.65800000	         63.43687800	        192.83252400	         -1.31319300	          0.30212000	          0.00600000	         -0.17126200	          0.00000000	         -0.17699000	          0.00000000	        -95.86634600	        506.96633000	         11.19893200	          0.84267000	          0.00600000	         -0.27807500	          0.00000000	          0.23242100	          0.00000000	
          0.65850000	         62.92591400	        190.74216900	         -1.24174300	          0.30227300	          0.00600000	         -0.17125900	          0.00000000	         -0.17471700	          0.00000000	        -96.13938600	        508.46321700	         11.37787300	          0.84287500	          0.00600000	         -0.27811800	          0.00000000	          0.22674500	          0.00000000	
          0.65900000	         62.41457600	        188.65980400	         -1.17127300	          0.30242700	          0.00600000	         -0.17125500	          0.00000000	         -0.17245400	          0.00000000	        -96.40776800	        509.94512700	         11.55704200	          0.84307900	          0.00600000	         -0.27816200	          0.00000000	          0.22101600	          0.00000000	
          0.65950000	         61.90292700	        186.58556100	         -1.10177900	          0.30258200	          0.00600000	         -0.17125200	          0.00000000	         -0.17020100	          0.00000000	        -96.67147500	        511.41200500	         11.73641900	          0.84328400	          0.00600000	         -0.27820500	          0.00000000	          0.21523500	          0.00000000	
          0.66000000	         61.39102900	        184.51957200	         -1.03325900	          0.30273800	          0.00600000	         -0.17124900	          0.00000000	         -0.16795700	          0.00000000	        -96.93049000	        512.86379800	         11.91598900	          0.84348800	          0.00600000	         -0.27824800	          0.00000000	          0.20940200	          0.00000000	
          0.66050000	         60.87894300	        182.46196700	         -0.96570700	          0.30289500	          0.00600000	         -0.17124500	          0.00000000	         -0.16572200	          0.00000000	        -97.18479600	        514.30045800	         12.09573300	          0.84369200	          0.00600000	         -0.27829200	          0.00000000	          0.20351800	          0.00000000	
          0.66100000	         60.36673100	        180.41287200	         -0.89911900	          0.30305400	          0.00600000	         -0.17124100	          0.00000000	         -0.16349700	          0.00000000	        -97.43437800	        515.72193700	         12.27563400	          0.84389600	          0.00600000	         -0.27833500	          0.00000000	          0.19758300	          0.00000000	
          0.66150000	         59.85445400	        178.37241300	         -0.83349000	          0.30321300	          0.00600000	         -0.17123700	          0.00000000	         -0.16128200	          0.00000000	        -97.67922100	        517.12819400	         12.45567500	          0.84409900	          0.00600000	         -0.27837800	          0.00000000	          0.19159800	          0.00000000	
          0.66200000	         59.34217300	        176.34071400	         -0.76881500	          0.30337400	          0.00600000	         -0.17123300	          0.00000000	         -0.15907700	          0.00000000	        -97.91931300	        518.51918900	         12.63583600	          0.84430300	          0.00600000	         -0.27842100	          0.00000000	          0.18556500	          0.00000000	
          0.66250000	         58.82994800	        174.31789700	         -0.70509000	          0.30353600	          0.00600000	         -0.17122900	          0.00000000	         -0.15688100	          0.00000000	        -98.15464000	        519.89488300	         12.81609900	          0.84450600	          0.00600000	         -0.27846500	          0.00000000	          0.17948200	          0.00000000	
